<svg width="916" height="66" viewBox="0 0 916 66" fill="none" xmlns="http://www.w3.org/2000/svg">
<rect x="255.5" y="16.5" width="206" height="46" stroke="black"/>
<g filter="url(#filter0_d_1_998)">
<path d="M255 25C255 20.0294 259.029 16 264 16H453C457.971 16 462 20.0294 462 25V54C462 58.9706 457.971 63 453 63H264C259.029 63 255 58.9706 255 54V25Z" fill="white"/>
</g>
<path d="M312.887 40.7373C312.787 42.1143 312.277 43.1982 311.357 43.9893C310.443 44.7803 309.236 45.1758 307.736 45.1758C306.096 45.1758 304.804 44.625 303.86 43.5234C302.923 42.416 302.454 40.8984 302.454 38.9707V38.1885C302.454 36.958 302.671 35.874 303.104 34.9365C303.538 33.999 304.156 33.2812 304.959 32.7832C305.768 32.2793 306.705 32.0273 307.771 32.0273C309.248 32.0273 310.438 32.4229 311.34 33.2139C312.242 34.0049 312.764 35.1152 312.904 36.5449H310.268C310.203 35.7188 309.972 35.1211 309.573 34.752C309.181 34.377 308.58 34.1895 307.771 34.1895C306.893 34.1895 306.233 34.5059 305.794 35.1387C305.36 35.7656 305.138 36.7412 305.126 38.0654V39.0322C305.126 40.415 305.334 41.4258 305.75 42.0645C306.172 42.7031 306.834 43.0225 307.736 43.0225C308.551 43.0225 309.157 42.8379 309.556 42.4688C309.96 42.0938 310.191 41.5166 310.25 40.7373H312.887ZM316.93 36.5273C317.604 35.7188 318.45 35.3145 319.47 35.3145C321.532 35.3145 322.578 36.5127 322.607 38.9092V45H320.067V38.9795C320.067 38.4346 319.95 38.0332 319.716 37.7754C319.481 37.5117 319.092 37.3799 318.547 37.3799C317.803 37.3799 317.264 37.667 316.93 38.2412V45H314.39V31.5H316.93V36.5273ZM329.867 37.8721C329.521 37.8252 329.217 37.8018 328.953 37.8018C327.992 37.8018 327.362 38.127 327.063 38.7773V45H324.523V35.4902H326.923L326.993 36.624C327.503 35.751 328.209 35.3145 329.111 35.3145C329.393 35.3145 329.656 35.3525 329.902 35.4287L329.867 37.8721ZM330.386 40.1572C330.386 39.2139 330.567 38.373 330.931 37.6348C331.294 36.8965 331.815 36.3252 332.495 35.9209C333.181 35.5166 333.975 35.3145 334.877 35.3145C336.16 35.3145 337.206 35.707 338.015 36.4922C338.829 37.2773 339.283 38.3438 339.377 39.6914L339.395 40.3418C339.395 41.8008 338.987 42.9727 338.173 43.8574C337.358 44.7363 336.266 45.1758 334.895 45.1758C333.523 45.1758 332.428 44.7363 331.607 43.8574C330.793 42.9785 330.386 41.7832 330.386 40.2715V40.1572ZM332.926 40.3418C332.926 41.2441 333.096 41.9355 333.436 42.416C333.775 42.8906 334.262 43.1279 334.895 43.1279C335.51 43.1279 335.99 42.8936 336.336 42.4248C336.682 41.9502 336.854 41.1943 336.854 40.1572C336.854 39.2725 336.682 38.5869 336.336 38.1006C335.99 37.6143 335.504 37.3711 334.877 37.3711C334.256 37.3711 333.775 37.6143 333.436 38.1006C333.096 38.5811 332.926 39.3281 332.926 40.3418ZM343.341 35.4902L343.42 36.5537C344.094 35.7275 345.005 35.3145 346.153 35.3145C347.378 35.3145 348.219 35.7979 348.676 36.7646C349.344 35.7979 350.296 35.3145 351.532 35.3145C352.563 35.3145 353.331 35.6162 353.835 36.2197C354.339 36.8174 354.591 37.7197 354.591 38.9268V45H352.042V38.9355C352.042 38.3965 351.937 38.0039 351.726 37.7578C351.515 37.5059 351.143 37.3799 350.609 37.3799C349.848 37.3799 349.32 37.7432 349.027 38.4697L349.036 45H346.496V38.9443C346.496 38.3936 346.388 37.9951 346.171 37.749C345.954 37.5029 345.585 37.3799 345.063 37.3799C344.343 37.3799 343.821 37.6787 343.499 38.2764V45H340.959V35.4902H343.341ZM360.928 45.1758C359.533 45.1758 358.396 44.748 357.518 43.8926C356.645 43.0371 356.208 41.8975 356.208 40.4736V40.2275C356.208 39.2725 356.393 38.4199 356.762 37.6699C357.131 36.9141 357.652 36.334 358.326 35.9297C359.006 35.5195 359.779 35.3145 360.646 35.3145C361.947 35.3145 362.97 35.7246 363.714 36.5449C364.464 37.3652 364.839 38.5283 364.839 40.0342V41.0713H358.783C358.865 41.6924 359.111 42.1904 359.521 42.5654C359.938 42.9404 360.462 43.1279 361.095 43.1279C362.073 43.1279 362.838 42.7734 363.389 42.0645L364.637 43.4619C364.256 44.001 363.74 44.4229 363.09 44.7275C362.439 45.0264 361.719 45.1758 360.928 45.1758ZM360.638 37.3711C360.134 37.3711 359.724 37.541 359.407 37.8809C359.097 38.2207 358.897 38.707 358.81 39.3398H362.343V39.1377C362.331 38.5752 362.179 38.1416 361.886 37.8369C361.593 37.5264 361.177 37.3711 360.638 37.3711ZM378.638 39.4541H373.575V42.8818H379.517V45H370.938V32.2031H379.499V34.3389H373.575V37.3887H378.638V39.4541ZM384.518 38.3291L386.117 35.4902H388.833L386.126 40.1484L388.947 45H386.223L384.526 42.0117L382.839 45H380.105L382.927 40.1484L380.229 35.4902H382.953L384.518 38.3291ZM393.096 33.1523V35.4902H394.722V37.3535H393.096V42.0996C393.096 42.4512 393.163 42.7031 393.298 42.8555C393.433 43.0078 393.69 43.084 394.071 43.084C394.353 43.084 394.602 43.0635 394.818 43.0225V44.9473C394.32 45.0996 393.808 45.1758 393.28 45.1758C391.499 45.1758 390.591 44.2764 390.556 42.4775V37.3535H389.167V35.4902H390.556V33.1523H393.096ZM400.514 45.1758C399.119 45.1758 397.982 44.748 397.104 43.8926C396.23 43.0371 395.794 41.8975 395.794 40.4736V40.2275C395.794 39.2725 395.979 38.4199 396.348 37.6699C396.717 36.9141 397.238 36.334 397.912 35.9297C398.592 35.5195 399.365 35.3145 400.232 35.3145C401.533 35.3145 402.556 35.7246 403.3 36.5449C404.05 37.3652 404.425 38.5283 404.425 40.0342V41.0713H398.369C398.451 41.6924 398.697 42.1904 399.107 42.5654C399.523 42.9404 400.048 43.1279 400.681 43.1279C401.659 43.1279 402.424 42.7734 402.975 42.0645L404.223 43.4619C403.842 44.001 403.326 44.4229 402.676 44.7275C402.025 45.0264 401.305 45.1758 400.514 45.1758ZM400.224 37.3711C399.72 37.3711 399.31 37.541 398.993 37.8809C398.683 38.2207 398.483 38.707 398.396 39.3398H401.929V39.1377C401.917 38.5752 401.765 38.1416 401.472 37.8369C401.179 37.5264 400.763 37.3711 400.224 37.3711ZM408.213 35.4902L408.292 36.5889C408.972 35.7393 409.883 35.3145 411.025 35.3145C412.033 35.3145 412.783 35.6104 413.275 36.2021C413.768 36.7939 414.02 37.6787 414.031 38.8564V45H411.491V38.918C411.491 38.3789 411.374 37.9893 411.14 37.749C410.905 37.5029 410.516 37.3799 409.971 37.3799C409.256 37.3799 408.72 37.6846 408.362 38.2939V45H405.822V35.4902H408.213ZM421.115 42.3721C421.115 42.0615 420.96 41.8184 420.649 41.6426C420.345 41.4609 419.853 41.2998 419.173 41.1592C416.911 40.6846 415.78 39.7236 415.78 38.2764C415.78 37.4326 416.129 36.7295 416.826 36.167C417.529 35.5986 418.446 35.3145 419.577 35.3145C420.784 35.3145 421.748 35.5986 422.469 36.167C423.195 36.7354 423.559 37.4736 423.559 38.3818H421.019C421.019 38.0186 420.901 37.7197 420.667 37.4854C420.433 37.2451 420.066 37.125 419.568 37.125C419.141 37.125 418.81 37.2217 418.575 37.415C418.341 37.6084 418.224 37.8545 418.224 38.1533C418.224 38.4346 418.355 38.6631 418.619 38.8389C418.889 39.0088 419.34 39.1582 419.973 39.2871C420.605 39.4102 421.139 39.5508 421.572 39.709C422.914 40.2012 423.585 41.0537 423.585 42.2666C423.585 43.1338 423.213 43.8369 422.469 44.376C421.725 44.9092 420.764 45.1758 419.586 45.1758C418.789 45.1758 418.08 45.0352 417.459 44.7539C416.844 44.4668 416.36 44.0771 416.009 43.585C415.657 43.0869 415.481 42.5508 415.481 41.9766H417.89C417.913 42.4277 418.08 42.7734 418.391 43.0137C418.701 43.2539 419.117 43.374 419.639 43.374C420.125 43.374 420.491 43.2832 420.737 43.1016C420.989 42.9141 421.115 42.6709 421.115 42.3721ZM427.909 45H425.36V35.4902H427.909V45ZM425.211 33.0293C425.211 32.6484 425.337 32.335 425.589 32.0889C425.847 31.8428 426.195 31.7197 426.635 31.7197C427.068 31.7197 427.414 31.8428 427.672 32.0889C427.93 32.335 428.059 32.6484 428.059 33.0293C428.059 33.416 427.927 33.7324 427.663 33.9785C427.405 34.2246 427.062 34.3477 426.635 34.3477C426.207 34.3477 425.861 34.2246 425.598 33.9785C425.34 33.7324 425.211 33.416 425.211 33.0293ZM429.614 40.1572C429.614 39.2139 429.796 38.373 430.159 37.6348C430.522 36.8965 431.044 36.3252 431.724 35.9209C432.409 35.5166 433.203 35.3145 434.105 35.3145C435.389 35.3145 436.435 35.707 437.243 36.4922C438.058 37.2773 438.512 38.3438 438.605 39.6914L438.623 40.3418C438.623 41.8008 438.216 42.9727 437.401 43.8574C436.587 44.7363 435.494 45.1758 434.123 45.1758C432.752 45.1758 431.656 44.7363 430.836 43.8574C430.021 42.9785 429.614 41.7832 429.614 40.2715V40.1572ZM432.154 40.3418C432.154 41.2441 432.324 41.9355 432.664 42.416C433.004 42.8906 433.49 43.1279 434.123 43.1279C434.738 43.1279 435.219 42.8936 435.564 42.4248C435.91 41.9502 436.083 41.1943 436.083 40.1572C436.083 39.2725 435.91 38.5869 435.564 38.1006C435.219 37.6143 434.732 37.3711 434.105 37.3711C433.484 37.3711 433.004 37.6143 432.664 38.1006C432.324 38.5811 432.154 39.3281 432.154 40.3418ZM442.525 35.4902L442.604 36.5889C443.284 35.7393 444.195 35.3145 445.338 35.3145C446.346 35.3145 447.096 35.6104 447.588 36.2021C448.08 36.7939 448.332 37.6787 448.344 38.8564V45H445.804V38.918C445.804 38.3789 445.687 37.9893 445.452 37.749C445.218 37.5029 444.828 37.3799 444.283 37.3799C443.568 37.3799 443.032 37.6846 442.675 38.2939V45H440.135V35.4902H442.525Z" fill="#12100C"/>
<g clip-path="url(#clip0_1_998)">
<path d="M269.746 28V41.5H274.67L279 34H290V28H269.746Z" fill="#DB4437"/>
<path d="M269.746 28V41.5H274.67L279 34H290V28H269.746Z" fill="url(#paint0_linear_1_998)"/>
<path d="M274.789 41.4562L269.81 32.9175L269.737 33.0425L274.68 41.5175L274.789 41.4562Z" fill="#3E2723" fill-opacity="0.15"/>
<path d="M268 50.0001H278.471L283.331 45.1401V41.5001H274.67L268 30.0601V50.0001Z" fill="#0F9D58"/>
<path d="M268 50.0001H278.471L283.331 45.1401V41.5001H274.67L268 30.0601V50.0001Z" fill="url(#paint1_linear_1_998)"/>
<path d="M283.23 41.6662L283.126 41.6062L278.328 50H278.471L283.234 41.67L283.23 41.6662Z" fill="#263238" fill-opacity="0.15"/>
<path d="M279 34L283.331 41.5L278.471 50H290V34H279Z" fill="#FFCD40"/>
<path d="M279 34L283.331 41.5L278.471 50H290V34H279Z" fill="url(#paint2_linear_1_998)"/>
<path d="M279 34L283.331 41.5L278.471 50H290V34H279Z" fill="#FFCD40"/>
<path d="M279 34L283.331 41.5L278.471 50H290V34H279Z" fill="url(#paint3_linear_1_998)"/>
<path d="M269.746 28V41.5H274.67L279 34H290V28H269.746Z" fill="#DB4437"/>
<path d="M269.746 28V41.5H274.67L279 34H290V28H269.746Z" fill="url(#paint4_linear_1_998)"/>
<path d="M279 34V36.6187L288.8 34H279Z" fill="url(#paint5_radial_1_998)"/>
<path d="M268 50.0001H278.471L283.331 45.1401V41.5001H274.67L268 30.0601V50.0001Z" fill="#0F9D58"/>
<path d="M268 50.0001H278.471L283.331 45.1401V41.5001H274.67L268 30.0601V50.0001Z" fill="url(#paint6_linear_1_998)"/>
<path d="M269.746 33.0562L276.903 40.2112L274.67 41.4999L269.746 33.0562Z" fill="url(#paint7_radial_1_998)"/>
<path d="M278.479 49.9862L281.099 40.2112L283.331 41.4999L278.479 49.9862Z" fill="url(#paint8_radial_1_998)"/>
<path d="M279 44C281.761 44 284 41.7614 284 39C284 36.2386 281.761 34 279 34C276.239 34 274 36.2386 274 39C274 41.7614 276.239 44 279 44Z" fill="#F1F1F1"/>
<path d="M279 43C281.209 43 283 41.2091 283 39C283 36.7909 281.209 35 279 35C276.791 35 275 36.7909 275 39C275 41.2091 276.791 43 279 43Z" fill="#4285F4"/>
<path d="M279 33.875C276.239 33.875 274 36.1137 274 38.875V39C274 36.2387 276.239 34 279 34H290V33.875H279Z" fill="#3E2723" fill-opacity="0.2"/>
<path d="M283.325 41.5001C282.46 42.9926 280.849 44.0001 279 44.0001C277.15 44.0001 275.539 42.9926 274.674 41.5001H274.669L268 30.0601V30.1851L274.67 41.6251H274.675C275.54 43.1176 277.151 44.1251 279.001 44.1251C280.85 44.1251 282.461 43.1188 283.326 41.6251H283.333V41.5001H283.325Z" fill="white" fill-opacity="0.1"/>
<path opacity="0.1" d="M279.125 34C279.104 34 279.084 34.0025 279.062 34.0037C281.795 34.0375 284 36.26 284 39C284 41.74 281.795 43.9625 279.062 43.9963C279.084 43.9963 279.104 44 279.125 44C281.886 44 284.125 41.7613 284.125 39C284.125 36.2387 281.886 34 279.125 34Z" fill="#3E2723"/>
<path d="M283.375 41.6664C283.8 40.9314 284.046 40.0814 284.046 39.1714C284.046 38.6439 283.964 38.1364 283.813 37.6602C283.931 38.0877 284 38.5364 284 39.0014C284 39.9114 283.754 40.7614 283.329 41.4964L283.331 41.5014L278.471 50.0014H278.616L283.378 41.6714L283.375 41.6664Z" fill="white" fill-opacity="0.2"/>
<path d="M279 28.125C285.054 28.125 289.965 33.0163 289.999 39.0625C289.999 39.0413 290 39.0212 290 39C290 32.925 285.075 28 279 28C272.925 28 268 32.925 268 39C268 39.0212 268.001 39.0413 268.001 39.0625C268.035 33.0163 272.946 28.125 279 28.125Z" fill="white" fill-opacity="0.2"/>
<path d="M279 49.875C285.054 49.875 289.965 44.9837 289.999 38.9375C289.999 38.9588 290 38.9787 290 39C290 45.075 285.075 50 279 50C272.925 50 268 45.075 268 39C268 38.9787 268.001 38.9588 268.001 38.9375C268.035 44.9837 272.946 49.875 279 49.875Z" fill="#3E2723" fill-opacity="0.15"/>
<path d="M279 50C285.075 50 290 45.0751 290 39C290 32.9249 285.075 28 279 28C272.925 28 268 32.9249 268 39C268 45.0751 272.925 50 279 50Z" fill="url(#paint9_radial_1_998)"/>
</g>
<rect x="478.5" y="16.5" width="198" height="46" stroke="black"/>
<g filter="url(#filter1_d_1_998)">
<path d="M478 25C478 20.0294 482.029 16 487 16H668C672.971 16 677 20.0294 677 25V54C677 58.9706 672.971 63 668 63H487C482.029 63 478 58.9706 478 54V25Z" fill="white"/>
</g>
<path d="M533.161 39.7705H528.099V45H525.462V32.2031H533.794V34.3389H528.099V37.6436H533.161V39.7705ZM537.837 45H535.288V35.4902H537.837V45ZM535.139 33.0293C535.139 32.6484 535.265 32.335 535.517 32.0889C535.774 31.8428 536.123 31.7197 536.562 31.7197C536.996 31.7197 537.342 31.8428 537.6 32.0889C537.857 32.335 537.986 32.6484 537.986 33.0293C537.986 33.416 537.854 33.7324 537.591 33.9785C537.333 34.2246 536.99 34.3477 536.562 34.3477C536.135 34.3477 535.789 34.2246 535.525 33.9785C535.268 33.7324 535.139 33.416 535.139 33.0293ZM545.281 37.8721C544.936 37.8252 544.631 37.8018 544.367 37.8018C543.406 37.8018 542.776 38.127 542.478 38.7773V45H539.938V35.4902H542.337L542.407 36.624C542.917 35.751 543.623 35.3145 544.525 35.3145C544.807 35.3145 545.07 35.3525 545.316 35.4287L545.281 37.8721ZM550.713 45.1758C549.318 45.1758 548.182 44.748 547.303 43.8926C546.43 43.0371 545.993 41.8975 545.993 40.4736V40.2275C545.993 39.2725 546.178 38.4199 546.547 37.6699C546.916 36.9141 547.438 36.334 548.111 35.9297C548.791 35.5195 549.564 35.3145 550.432 35.3145C551.732 35.3145 552.755 35.7246 553.499 36.5449C554.249 37.3652 554.624 38.5283 554.624 40.0342V41.0713H548.568C548.65 41.6924 548.896 42.1904 549.307 42.5654C549.723 42.9404 550.247 43.1279 550.88 43.1279C551.858 43.1279 552.623 42.7734 553.174 42.0645L554.422 43.4619C554.041 44.001 553.525 44.4229 552.875 44.7275C552.225 45.0264 551.504 45.1758 550.713 45.1758ZM550.423 37.3711C549.919 37.3711 549.509 37.541 549.192 37.8809C548.882 38.2207 548.683 38.707 548.595 39.3398H552.128V39.1377C552.116 38.5752 551.964 38.1416 551.671 37.8369C551.378 37.5264 550.962 37.3711 550.423 37.3711ZM556.769 45V37.3535H555.354V35.4902H556.769V34.6816C556.769 33.6152 557.073 32.7891 557.683 32.2031C558.298 31.6113 559.156 31.3154 560.258 31.3154C560.609 31.3154 561.04 31.374 561.55 31.4912L561.523 33.46C561.312 33.4072 561.055 33.3809 560.75 33.3809C559.795 33.3809 559.317 33.8291 559.317 34.7256V35.4902H561.207V37.3535H559.317V45H556.769ZM562.13 40.1572C562.13 39.2139 562.312 38.373 562.675 37.6348C563.038 36.8965 563.56 36.3252 564.239 35.9209C564.925 35.5166 565.719 35.3145 566.621 35.3145C567.904 35.3145 568.95 35.707 569.759 36.4922C570.573 37.2773 571.027 38.3438 571.121 39.6914L571.139 40.3418C571.139 41.8008 570.731 42.9727 569.917 43.8574C569.103 44.7363 568.01 45.1758 566.639 45.1758C565.268 45.1758 564.172 44.7363 563.352 43.8574C562.537 42.9785 562.13 41.7832 562.13 40.2715V40.1572ZM564.67 40.3418C564.67 41.2441 564.84 41.9355 565.18 42.416C565.52 42.8906 566.006 43.1279 566.639 43.1279C567.254 43.1279 567.734 42.8936 568.08 42.4248C568.426 41.9502 568.599 41.1943 568.599 40.1572C568.599 39.2725 568.426 38.5869 568.08 38.1006C567.734 37.6143 567.248 37.3711 566.621 37.3711C566 37.3711 565.52 37.6143 565.18 38.1006C564.84 38.5811 564.67 39.3281 564.67 40.3418ZM576.131 38.3291L577.73 35.4902H580.446L577.739 40.1484L580.561 45H577.836L576.14 42.0117L574.452 45H571.719L574.54 40.1484L571.842 35.4902H574.566L576.131 38.3291ZM594.017 39.4541H588.954V42.8818H594.896V45H586.317V32.2031H594.878V34.3389H588.954V37.3887H594.017V39.4541ZM599.896 38.3291L601.496 35.4902H604.212L601.505 40.1484L604.326 45H601.602L599.905 42.0117L598.218 45H595.484L598.306 40.1484L595.607 35.4902H598.332L599.896 38.3291ZM608.475 33.1523V35.4902H610.101V37.3535H608.475V42.0996C608.475 42.4512 608.542 42.7031 608.677 42.8555C608.812 43.0078 609.069 43.084 609.45 43.084C609.731 43.084 609.98 43.0635 610.197 43.0225V44.9473C609.699 45.0996 609.187 45.1758 608.659 45.1758C606.878 45.1758 605.97 44.2764 605.935 42.4775V37.3535H604.546V35.4902H605.935V33.1523H608.475ZM615.893 45.1758C614.498 45.1758 613.361 44.748 612.482 43.8926C611.609 43.0371 611.173 41.8975 611.173 40.4736V40.2275C611.173 39.2725 611.357 38.4199 611.727 37.6699C612.096 36.9141 612.617 36.334 613.291 35.9297C613.971 35.5195 614.744 35.3145 615.611 35.3145C616.912 35.3145 617.935 35.7246 618.679 36.5449C619.429 37.3652 619.804 38.5283 619.804 40.0342V41.0713H613.748C613.83 41.6924 614.076 42.1904 614.486 42.5654C614.902 42.9404 615.427 43.1279 616.06 43.1279C617.038 43.1279 617.803 42.7734 618.354 42.0645L619.602 43.4619C619.221 44.001 618.705 44.4229 618.055 44.7275C617.404 45.0264 616.684 45.1758 615.893 45.1758ZM615.603 37.3711C615.099 37.3711 614.688 37.541 614.372 37.8809C614.062 38.2207 613.862 38.707 613.774 39.3398H617.308V39.1377C617.296 38.5752 617.144 38.1416 616.851 37.8369C616.558 37.5264 616.142 37.3711 615.603 37.3711ZM623.592 35.4902L623.671 36.5889C624.351 35.7393 625.262 35.3145 626.404 35.3145C627.412 35.3145 628.162 35.6104 628.654 36.2021C629.146 36.7939 629.398 37.6787 629.41 38.8564V45H626.87V38.918C626.87 38.3789 626.753 37.9893 626.519 37.749C626.284 37.5029 625.895 37.3799 625.35 37.3799C624.635 37.3799 624.099 37.6846 623.741 38.2939V45H621.201V35.4902H623.592ZM636.494 42.3721C636.494 42.0615 636.339 41.8184 636.028 41.6426C635.724 41.4609 635.231 41.2998 634.552 41.1592C632.29 40.6846 631.159 39.7236 631.159 38.2764C631.159 37.4326 631.508 36.7295 632.205 36.167C632.908 35.5986 633.825 35.3145 634.956 35.3145C636.163 35.3145 637.127 35.5986 637.848 36.167C638.574 36.7354 638.938 37.4736 638.938 38.3818H636.397C636.397 38.0186 636.28 37.7197 636.046 37.4854C635.812 37.2451 635.445 37.125 634.947 37.125C634.52 37.125 634.188 37.2217 633.954 37.415C633.72 37.6084 633.603 37.8545 633.603 38.1533C633.603 38.4346 633.734 38.6631 633.998 38.8389C634.268 39.0088 634.719 39.1582 635.352 39.2871C635.984 39.4102 636.518 39.5508 636.951 39.709C638.293 40.2012 638.964 41.0537 638.964 42.2666C638.964 43.1338 638.592 43.8369 637.848 44.376C637.104 44.9092 636.143 45.1758 634.965 45.1758C634.168 45.1758 633.459 45.0352 632.838 44.7539C632.223 44.4668 631.739 44.0771 631.388 43.585C631.036 43.0869 630.86 42.5508 630.86 41.9766H633.269C633.292 42.4277 633.459 42.7734 633.77 43.0137C634.08 43.2539 634.496 43.374 635.018 43.374C635.504 43.374 635.87 43.2832 636.116 43.1016C636.368 42.9141 636.494 42.6709 636.494 42.3721ZM643.288 45H640.739V35.4902H643.288V45ZM640.59 33.0293C640.59 32.6484 640.716 32.335 640.968 32.0889C641.226 31.8428 641.574 31.7197 642.014 31.7197C642.447 31.7197 642.793 31.8428 643.051 32.0889C643.309 32.335 643.438 32.6484 643.438 33.0293C643.438 33.416 643.306 33.7324 643.042 33.9785C642.784 34.2246 642.441 34.3477 642.014 34.3477C641.586 34.3477 641.24 34.2246 640.977 33.9785C640.719 33.7324 640.59 33.416 640.59 33.0293ZM644.993 40.1572C644.993 39.2139 645.175 38.373 645.538 37.6348C645.901 36.8965 646.423 36.3252 647.103 35.9209C647.788 35.5166 648.582 35.3145 649.484 35.3145C650.768 35.3145 651.813 35.707 652.622 36.4922C653.437 37.2773 653.891 38.3438 653.984 39.6914L654.002 40.3418C654.002 41.8008 653.595 42.9727 652.78 43.8574C651.966 44.7363 650.873 45.1758 649.502 45.1758C648.131 45.1758 647.035 44.7363 646.215 43.8574C645.4 42.9785 644.993 41.7832 644.993 40.2715V40.1572ZM647.533 40.3418C647.533 41.2441 647.703 41.9355 648.043 42.416C648.383 42.8906 648.869 43.1279 649.502 43.1279C650.117 43.1279 650.598 42.8936 650.943 42.4248C651.289 41.9502 651.462 41.1943 651.462 40.1572C651.462 39.2725 651.289 38.5869 650.943 38.1006C650.598 37.6143 650.111 37.3711 649.484 37.3711C648.863 37.3711 648.383 37.6143 648.043 38.1006C647.703 38.5811 647.533 39.3281 647.533 40.3418ZM657.904 35.4902L657.983 36.5889C658.663 35.7393 659.574 35.3145 660.717 35.3145C661.725 35.3145 662.475 35.6104 662.967 36.2021C663.459 36.7939 663.711 37.6787 663.723 38.8564V45H661.183V38.918C661.183 38.3789 661.065 37.9893 660.831 37.749C660.597 37.5029 660.207 37.3799 659.662 37.3799C658.947 37.3799 658.411 37.6846 658.054 38.2939V45H655.514V35.4902H657.904Z" fill="#12100C"/>
<g clip-path="url(#clip1_1_998)">
<path d="M512.44 34.7991C511.95 33.6211 510.958 32.3494 510.18 31.9477C510.813 33.1903 511.18 34.4367 511.32 35.3667C511.32 35.3667 511.32 35.3733 511.322 35.3855C510.049 32.2102 507.889 30.9295 506.125 28.1419C506.035 28.0012 505.946 27.8606 505.859 27.7102C505.81 27.6253 505.77 27.5484 505.735 27.4758C505.662 27.3348 505.606 27.1859 505.567 27.0319C505.567 27.0246 505.565 27.0174 505.56 27.0118C505.556 27.0061 505.549 27.0024 505.542 27.0014C505.535 26.9995 505.528 26.9995 505.521 27.0014C505.519 27.0023 505.517 27.0034 505.516 27.0047C505.513 27.0047 505.51 27.008 505.507 27.0089L505.512 27.0028C502.682 28.6603 501.722 31.7264 501.634 33.2606C500.503 33.338 499.422 33.7543 498.531 34.4555C498.438 34.3768 498.341 34.3032 498.24 34.2352C497.983 33.3367 497.972 32.3858 498.208 31.4817C497.051 32.0091 496.151 32.8411 495.497 33.5775H495.491C495.045 33.0117 495.076 31.1456 495.101 30.7561C495.096 30.7317 494.769 30.9262 494.726 30.9558C494.332 31.237 493.964 31.5526 493.625 31.8989C493.24 32.2894 492.888 32.7113 492.573 33.1603C491.849 34.1871 491.335 35.3472 491.062 36.5738C491.057 36.5981 491.052 36.6234 491.047 36.6483C491.026 36.7472 490.949 37.2436 490.936 37.3514V37.3763C490.836 37.8892 490.774 38.4087 490.75 38.9306V38.9883C490.75 45.2095 495.794 50.2533 502.015 50.2533C507.587 50.2533 512.213 46.208 513.119 40.8942C513.138 40.7503 513.153 40.605 513.17 40.4597C513.394 38.5275 513.145 36.4969 512.44 34.7991ZM499.455 43.6172C499.508 43.642 499.557 43.6697 499.611 43.6941L499.619 43.6988C499.565 43.6725 499.51 43.6453 499.456 43.6172H499.455ZM511.323 35.3906V35.3798V35.392V35.3906Z" fill="url(#paint10_linear_1_998)"/>
<path d="M512.44 34.7992C511.95 33.6212 510.958 32.3495 510.18 31.9478C510.813 33.1904 511.18 34.4368 511.32 35.3668V35.3898C512.383 38.2717 511.804 41.2023 510.97 42.9929C509.679 45.7632 506.553 48.6029 501.661 48.4646C496.38 48.3146 491.724 44.3907 490.854 39.2556C490.696 38.4451 490.854 38.034 490.934 37.3764C490.837 37.8831 490.8 38.0298 490.751 38.9307V38.9884C490.751 45.2096 495.795 50.2534 502.016 50.2534C507.588 50.2534 512.215 46.2081 513.121 40.8943C513.139 40.7504 513.155 40.6051 513.172 40.4598C513.394 38.5276 513.145 36.497 512.44 34.7992Z" fill="url(#paint11_radial_1_998)"/>
<path d="M512.44 34.7992C511.95 33.6212 510.958 32.3495 510.18 31.9478C510.813 33.1904 511.18 34.4368 511.32 35.3668V35.3898C512.383 38.2717 511.804 41.2023 510.97 42.9929C509.679 45.7632 506.553 48.6029 501.661 48.4646C496.38 48.3146 491.724 44.3907 490.854 39.2556C490.696 38.4451 490.854 38.034 490.934 37.3764C490.837 37.8831 490.8 38.0298 490.751 38.9307V38.9884C490.751 45.2096 495.795 50.2534 502.016 50.2534C507.588 50.2534 512.215 46.2081 513.121 40.8943C513.139 40.7504 513.155 40.6051 513.172 40.4598C513.394 38.5276 513.145 36.497 512.44 34.7992Z" fill="url(#paint12_radial_1_998)"/>
<path d="M506.965 36.1229C506.99 36.1403 507.012 36.1576 507.035 36.175C506.753 35.673 506.4 35.2134 505.989 34.81C502.487 31.3084 505.071 27.2171 505.507 27.009L505.511 27.0029C502.682 28.6604 501.722 31.7265 501.633 33.2607C501.765 33.2518 501.895 33.2406 502.029 33.2406C504.141 33.2406 505.98 34.4022 506.965 36.1229Z" fill="url(#paint13_radial_1_998)"/>
<path d="M502.036 36.8221C502.018 37.1034 501.028 38.069 500.681 38.069C497.478 38.069 496.958 40.0068 496.958 40.0068C497.099 41.639 498.236 42.9829 499.612 43.694C499.675 43.7264 499.738 43.7554 499.799 43.7845C499.909 43.8314 500.02 43.8782 500.13 43.9199C500.602 44.0864 501.096 44.1812 501.596 44.2012C507.211 44.4646 508.299 37.4878 504.247 35.4618C505.284 35.2814 506.361 35.699 506.963 36.1214C505.978 34.4006 504.138 33.239 502.027 33.239C501.893 33.239 501.762 33.2503 501.631 33.2592C500.501 33.3375 499.421 33.7543 498.531 34.4554C498.703 34.6012 498.897 34.7953 499.306 35.1975C500.072 35.9531 502.032 36.7307 502.036 36.8221Z" fill="url(#paint14_radial_1_998)"/>
<path d="M502.036 36.8221C502.018 37.1034 501.028 38.069 500.681 38.069C497.478 38.069 496.958 40.0068 496.958 40.0068C497.099 41.639 498.236 42.9829 499.612 43.694C499.675 43.7264 499.738 43.7554 499.799 43.7845C499.909 43.8314 500.02 43.8782 500.13 43.9199C500.602 44.0864 501.096 44.1812 501.596 44.2012C507.211 44.4646 508.299 37.4878 504.247 35.4618C505.284 35.2814 506.361 35.699 506.963 36.1214C505.978 34.4006 504.138 33.239 502.027 33.239C501.893 33.239 501.762 33.2503 501.631 33.2592C500.501 33.3375 499.421 33.7543 498.531 34.4554C498.703 34.6012 498.897 34.7953 499.306 35.1975C500.072 35.9531 502.032 36.7307 502.036 36.8221Z" fill="url(#paint15_radial_1_998)"/>
<path d="M498.008 34.0809C498.099 34.14 498.174 34.1897 498.242 34.2351C497.985 33.3367 497.975 32.3858 498.211 31.4817C497.053 32.009 496.153 32.8411 495.499 33.5775C495.552 33.5761 497.186 33.5465 498.008 34.0809Z" fill="url(#paint16_radial_1_998)"/>
<path d="M490.854 39.2555C491.724 44.3907 496.38 48.3146 501.665 48.4646C506.557 48.6028 509.68 45.7632 510.973 42.9928C511.808 41.2018 512.387 38.2716 511.324 35.3897V35.3682C511.324 35.371 511.324 35.3747 511.326 35.3869C511.726 37.9964 510.399 40.5244 508.324 42.2339C508.322 42.2387 508.32 42.2436 508.318 42.2485C504.275 45.5405 500.406 44.2346 499.623 43.7016C499.569 43.6753 499.514 43.6482 499.459 43.62C497.102 42.495 496.128 40.3458 496.337 38.5041C494.347 38.5041 493.668 36.825 493.668 36.825C493.668 36.825 495.455 35.551 497.81 36.6591C499.991 37.6857 502.04 36.8255 502.04 36.825C502.036 36.7336 500.075 35.9536 499.311 35.2003C498.902 34.7982 498.708 34.6041 498.536 34.4583C498.443 34.3796 498.346 34.3061 498.245 34.238C498.178 34.1911 498.104 34.1443 498.01 34.0838C497.189 33.5494 495.555 33.5789 495.501 33.5803H495.496C495.049 33.0146 495.08 31.1485 495.106 30.7589C495.1 30.7346 494.773 30.9291 494.731 30.9586C494.336 31.2398 493.968 31.5555 493.63 31.9018C493.244 32.2922 492.893 32.7141 492.578 33.1632C491.853 34.1899 491.339 35.3501 491.066 36.5766C491.057 36.5982 490.656 38.348 490.854 39.2555Z" fill="url(#paint17_radial_1_998)"/>
<path d="M505.989 34.8098C506.4 35.2133 506.753 35.6728 507.035 36.1748C507.094 36.2189 507.15 36.2658 507.204 36.3155C509.758 38.6667 508.422 41.9953 508.32 42.2344C510.395 40.5249 511.722 37.9969 511.322 35.3873C510.049 32.2102 507.889 30.9295 506.125 28.1419C506.035 28.0012 505.946 27.8606 505.859 27.7102C505.81 27.6253 505.77 27.5484 505.735 27.4758C505.662 27.3348 505.606 27.1859 505.567 27.0319C505.567 27.0246 505.565 27.0174 505.56 27.0118C505.556 27.0061 505.549 27.0024 505.542 27.0014C505.535 26.9995 505.528 26.9995 505.521 27.0014C505.519 27.0023 505.517 27.0034 505.516 27.0047C505.513 27.0047 505.51 27.008 505.507 27.0089C505.071 27.217 502.487 31.3083 505.989 34.8098Z" fill="url(#paint18_radial_1_998)"/>
<path d="M507.203 36.313C507.149 36.2633 507.093 36.2164 507.034 36.1724C507.011 36.1551 506.987 36.1377 506.964 36.1204C506.363 35.6985 505.285 35.2804 504.248 35.4608C508.3 37.4868 507.212 44.4636 501.597 44.2002C501.097 44.1802 500.603 44.0854 500.132 43.919C500.021 43.8777 499.911 43.8322 499.801 43.7835C499.737 43.7544 499.674 43.7254 499.613 43.693L499.621 43.6977C500.404 44.2321 504.272 45.538 508.315 42.2446C508.315 42.2446 508.318 42.2385 508.322 42.23C508.422 41.9952 509.758 38.6666 507.203 36.313Z" fill="url(#paint19_radial_1_998)"/>
<path d="M496.958 40.0069C496.958 40.0069 497.478 38.0691 500.681 38.0691C501.028 38.0691 502.018 37.1025 502.036 36.8222C502.054 36.5419 499.988 37.6828 497.807 36.6562C495.452 35.5481 493.665 36.8222 493.665 36.8222C493.665 36.8222 494.343 38.5012 496.333 38.5012C496.125 40.343 497.098 42.4903 499.456 43.6172C499.508 43.642 499.558 43.6697 499.612 43.6941C498.236 42.9844 497.1 41.6391 496.958 40.0069Z" fill="url(#paint20_radial_1_998)"/>
<path d="M512.44 34.7991C511.95 33.6211 510.958 32.3494 510.18 31.9477C510.813 33.1903 511.18 34.4367 511.32 35.3667C511.32 35.3667 511.32 35.3733 511.322 35.3855C510.049 32.2102 507.889 30.9295 506.125 28.1419C506.035 28.0012 505.946 27.8606 505.859 27.7102C505.81 27.6253 505.77 27.5484 505.735 27.4758C505.662 27.3348 505.606 27.1859 505.567 27.0319C505.567 27.0246 505.565 27.0174 505.56 27.0118C505.556 27.0061 505.549 27.0024 505.542 27.0014C505.535 26.9995 505.528 26.9995 505.521 27.0014C505.519 27.0023 505.517 27.0034 505.516 27.0047C505.513 27.0047 505.51 27.008 505.507 27.0089L505.512 27.0028C502.682 28.6603 501.722 31.7264 501.634 33.2606C501.765 33.2517 501.896 33.2405 502.03 33.2405C504.141 33.2405 505.981 34.402 506.965 36.1228C506.364 35.7009 505.287 35.2828 504.25 35.4633C508.301 37.4892 507.213 44.4661 501.599 44.2027C501.099 44.1826 500.605 44.0878 500.133 43.9214C500.023 43.8802 499.912 43.8347 499.802 43.7859C499.738 43.7569 499.675 43.7278 499.615 43.6955L499.622 43.7002C499.568 43.6739 499.513 43.6467 499.458 43.6186C499.511 43.6434 499.561 43.6711 499.615 43.6955C498.236 42.9844 497.1 41.6391 496.958 40.0069C496.958 40.0069 497.478 38.0691 500.681 38.0691C501.028 38.0691 502.018 37.1025 502.036 36.8222C502.032 36.7308 500.072 35.9508 499.307 35.1975C498.899 34.7953 498.705 34.6013 498.533 34.4555C498.44 34.3768 498.342 34.3032 498.241 34.2352C497.984 33.3367 497.974 32.3858 498.21 31.4817C497.052 32.0091 496.152 32.8411 495.498 33.5775H495.493C495.046 33.0117 495.077 31.1456 495.103 30.7561C495.098 30.7317 494.77 30.9262 494.728 30.9558C494.334 31.237 493.965 31.5526 493.627 31.8989C493.242 32.2894 492.89 32.7113 492.575 33.1603C491.85 34.1871 491.337 35.3472 491.063 36.5738C491.058 36.5981 491.053 36.6234 491.048 36.6483C491.027 36.7472 490.931 37.2506 490.918 37.3584C490.918 37.3505 490.918 37.3669 490.918 37.3584C490.831 37.8786 490.774 38.4037 490.75 38.9306V38.9883C490.75 45.2095 495.794 50.2533 502.015 50.2533C507.587 50.2533 512.213 46.208 513.119 40.8942C513.138 40.7503 513.153 40.605 513.17 40.4597C513.394 38.5275 513.145 36.4969 512.44 34.7991ZM511.322 35.3775V35.3897V35.3775Z" fill="url(#paint21_linear_1_998)"/>
</g>
<defs>
<filter id="filter0_d_1_998" x="253" y="14.5" width="211" height="51" filterUnits="userSpaceOnUse" color-interpolation-filters="sRGB">
<feFlood flood-opacity="0" result="BackgroundImageFix"/>
<feColorMatrix in="SourceAlpha" type="matrix" values="0 0 0 0 0 0 0 0 0 0 0 0 0 0 0 0 0 0 127 0" result="hardAlpha"/>
<feOffset dy="0.5"/>
<feGaussianBlur stdDeviation="1"/>
<feColorMatrix type="matrix" values="0 0 0 0 0 0 0 0 0 0 0 0 0 0 0 0 0 0 0.1 0"/>
<feBlend mode="normal" in2="BackgroundImageFix" result="effect1_dropShadow_1_998"/>
<feBlend mode="normal" in="SourceGraphic" in2="effect1_dropShadow_1_998" result="shape"/>
</filter>
<filter id="filter1_d_1_998" x="476" y="14.5" width="203" height="51" filterUnits="userSpaceOnUse" color-interpolation-filters="sRGB">
<feFlood flood-opacity="0" result="BackgroundImageFix"/>
<feColorMatrix in="SourceAlpha" type="matrix" values="0 0 0 0 0 0 0 0 0 0 0 0 0 0 0 0 0 0 127 0" result="hardAlpha"/>
<feOffset dy="0.5"/>
<feGaussianBlur stdDeviation="1"/>
<feColorMatrix type="matrix" values="0 0 0 0 0 0 0 0 0 0 0 0 0 0 0 0 0 0 0.1 0"/>
<feBlend mode="normal" in2="BackgroundImageFix" result="effect1_dropShadow_1_998"/>
<feBlend mode="normal" in="SourceGraphic" in2="effect1_dropShadow_1_998" result="shape"/>
</filter>
<linearGradient id="paint0_linear_1_998" x1="270.667" y1="36.3776" x2="277.23" y2="32.5442" gradientUnits="userSpaceOnUse">
<stop stop-color="#A52714" stop-opacity="0.6"/>
<stop offset="0.66" stop-color="#A52714" stop-opacity="0"/>
</linearGradient>
<linearGradient id="paint1_linear_1_998" x1="280.859" y1="47.5619" x2="273.567" y2="43.2912" gradientUnits="userSpaceOnUse">
<stop stop-color="#055524" stop-opacity="0.4"/>
<stop offset="0.33" stop-color="#055524" stop-opacity="0"/>
</linearGradient>
<linearGradient id="paint2_linear_1_998" x1="282.232" y1="33.2255" x2="284.068" y2="41.2662" gradientUnits="userSpaceOnUse">
<stop stop-color="#EA6100" stop-opacity="0.3"/>
<stop offset="0.66" stop-color="#EA6100" stop-opacity="0"/>
</linearGradient>
<linearGradient id="paint3_linear_1_998" x1="282.232" y1="33.2255" x2="284.068" y2="41.2662" gradientUnits="userSpaceOnUse">
<stop stop-color="#EA6100" stop-opacity="0.3"/>
<stop offset="0.66" stop-color="#EA6100" stop-opacity="0"/>
</linearGradient>
<linearGradient id="paint4_linear_1_998" x1="270.667" y1="36.3776" x2="277.23" y2="32.5442" gradientUnits="userSpaceOnUse">
<stop stop-color="#A52714" stop-opacity="0.6"/>
<stop offset="0.66" stop-color="#A52714" stop-opacity="0"/>
</linearGradient>
<radialGradient id="paint5_radial_1_998" cx="0" cy="0" r="1" gradientUnits="userSpaceOnUse" gradientTransform="translate(278.522 33.9935) scale(10.5097)">
<stop stop-color="#3E2723" stop-opacity="0.2"/>
<stop offset="1" stop-color="#3E2723" stop-opacity="0"/>
</radialGradient>
<linearGradient id="paint6_linear_1_998" x1="280.859" y1="47.5619" x2="273.567" y2="43.2912" gradientUnits="userSpaceOnUse">
<stop stop-color="#055524" stop-opacity="0.4"/>
<stop offset="0.33" stop-color="#055524" stop-opacity="0"/>
</linearGradient>
<radialGradient id="paint7_radial_1_998" cx="0" cy="0" r="1" gradientUnits="userSpaceOnUse" gradientTransform="translate(269.734 33.0649) scale(9.7555)">
<stop stop-color="#3E2723" stop-opacity="0.2"/>
<stop offset="1" stop-color="#3E2723" stop-opacity="0"/>
</radialGradient>
<radialGradient id="paint8_radial_1_998" cx="0" cy="0" r="1" gradientUnits="userSpaceOnUse" gradientTransform="translate(278.981 39.0172) scale(10.9837 10.9837)">
<stop stop-color="#263238" stop-opacity="0.2"/>
<stop offset="1" stop-color="#263238" stop-opacity="0"/>
</radialGradient>
<radialGradient id="paint9_radial_1_998" cx="0" cy="0" r="1" gradientUnits="userSpaceOnUse" gradientTransform="translate(271.286 31.0018) scale(22.0932)">
<stop stop-color="white" stop-opacity="0.1"/>
<stop offset="1" stop-color="white" stop-opacity="0"/>
</radialGradient>
<linearGradient id="paint10_linear_1_998" x1="510.948" y1="30.6023" x2="492.247" y2="48.6455" gradientUnits="userSpaceOnUse">
<stop offset="0.05" stop-color="#FFF44F"/>
<stop offset="0.11" stop-color="#FFE847"/>
<stop offset="0.22" stop-color="#FFC830"/>
<stop offset="0.37" stop-color="#FF980E"/>
<stop offset="0.4" stop-color="#FF8B16"/>
<stop offset="0.46" stop-color="#FF672A"/>
<stop offset="0.53" stop-color="#FF3647"/>
<stop offset="0.7" stop-color="#E31587"/>
</linearGradient>
<radialGradient id="paint11_radial_1_998" cx="0" cy="0" r="1" gradientUnits="userSpaceOnUse" gradientTransform="translate(510.084 29.581) scale(23.4848 23.4849)">
<stop offset="0.13" stop-color="#FFBD4F"/>
<stop offset="0.19" stop-color="#FFAC31"/>
<stop offset="0.25" stop-color="#FF9D17"/>
<stop offset="0.28" stop-color="#FF980E"/>
<stop offset="0.4" stop-color="#FF563B"/>
<stop offset="0.47" stop-color="#FF3750"/>
<stop offset="0.71" stop-color="#F5156C"/>
<stop offset="0.78" stop-color="#EB0878"/>
<stop offset="0.86" stop-color="#E50080"/>
</radialGradient>
<radialGradient id="paint12_radial_1_998" cx="0" cy="0" r="1" gradientUnits="userSpaceOnUse" gradientTransform="translate(501.503 39.182) scale(23.4848 23.4849)">
<stop offset="0.3" stop-color="#960E18"/>
<stop offset="0.35" stop-color="#B11927" stop-opacity="0.74"/>
<stop offset="0.43" stop-color="#DB293D" stop-opacity="0.34"/>
<stop offset="0.5" stop-color="#F5334B" stop-opacity="0.09"/>
<stop offset="0.53" stop-color="#FF3750" stop-opacity="0"/>
</radialGradient>
<radialGradient id="paint13_radial_1_998" cx="0" cy="0" r="1" gradientUnits="userSpaceOnUse" gradientTransform="translate(504.334 24.2514) scale(17.0138 17.0138)">
<stop offset="0.13" stop-color="#FFF44F"/>
<stop offset="0.25" stop-color="#FFDC3E"/>
<stop offset="0.51" stop-color="#FF9D12"/>
<stop offset="0.53" stop-color="#FF980E"/>
</radialGradient>
<radialGradient id="paint14_radial_1_998" cx="0" cy="0" r="1" gradientUnits="userSpaceOnUse" gradientTransform="translate(498.905 45.3164) scale(11.182 11.182)">
<stop offset="0.35" stop-color="#3A8EE6"/>
<stop offset="0.47" stop-color="#5C79F0"/>
<stop offset="0.67" stop-color="#9059FF"/>
<stop offset="1" stop-color="#C139E6"/>
</radialGradient>
<radialGradient id="paint15_radial_1_998" cx="0" cy="0" r="1" gradientUnits="userSpaceOnUse" gradientTransform="translate(501.84 36.3907) rotate(-13.8972) scale(5.9243 6.95964)">
<stop offset="0.21" stop-color="#9059FF" stop-opacity="0"/>
<stop offset="0.28" stop-color="#8C4FF3" stop-opacity="0.06"/>
<stop offset="0.75" stop-color="#7716A8" stop-opacity="0.45"/>
<stop offset="0.97" stop-color="#6E008B" stop-opacity="0.6"/>
</radialGradient>
<radialGradient id="paint16_radial_1_998" cx="0" cy="0" r="1" gradientUnits="userSpaceOnUse" gradientTransform="translate(501.206 28.62) scale(8.04469)">
<stop stop-color="#FFE226"/>
<stop offset="0.12" stop-color="#FFDB27"/>
<stop offset="0.3" stop-color="#FFC82A"/>
<stop offset="0.5" stop-color="#FFA930"/>
<stop offset="0.73" stop-color="#FF7E37"/>
<stop offset="0.79" stop-color="#FF7139"/>
</radialGradient>
<radialGradient id="paint17_radial_1_998" cx="0" cy="0" r="1" gradientUnits="userSpaceOnUse" gradientTransform="translate(507.529 23.5177) scale(34.3223 34.3223)">
<stop offset="0.11" stop-color="#FFF44F"/>
<stop offset="0.46" stop-color="#FF980E"/>
<stop offset="0.62" stop-color="#FF5634"/>
<stop offset="0.72" stop-color="#FF3647"/>
<stop offset="0.9" stop-color="#E31587"/>
</radialGradient>
<radialGradient id="paint18_radial_1_998" cx="0" cy="0" r="1" gradientUnits="userSpaceOnUse" gradientTransform="translate(504.212 27.2676) rotate(84.2321) scale(25.0176 16.4367)">
<stop stop-color="#FFF44F"/>
<stop offset="0.06" stop-color="#FFE847"/>
<stop offset="0.17" stop-color="#FFC830"/>
<stop offset="0.3" stop-color="#FF980E"/>
<stop offset="0.36" stop-color="#FF8B16"/>
<stop offset="0.45" stop-color="#FF672A"/>
<stop offset="0.57" stop-color="#FF3647"/>
<stop offset="0.74" stop-color="#E31587"/>
</radialGradient>
<radialGradient id="paint19_radial_1_998" cx="0" cy="0" r="1" gradientUnits="userSpaceOnUse" gradientTransform="translate(501.017 31.5993) scale(21.4275 21.4275)">
<stop offset="0.14" stop-color="#FFF44F"/>
<stop offset="0.48" stop-color="#FF980E"/>
<stop offset="0.59" stop-color="#FF5634"/>
<stop offset="0.66" stop-color="#FF3647"/>
<stop offset="0.9" stop-color="#E31587"/>
</radialGradient>
<radialGradient id="paint20_radial_1_998" cx="0" cy="0" r="1" gradientUnits="userSpaceOnUse" gradientTransform="translate(506.673 32.8537) scale(23.4525 23.4525)">
<stop offset="0.09" stop-color="#FFF44F"/>
<stop offset="0.23" stop-color="#FFE141"/>
<stop offset="0.51" stop-color="#FFAF1E"/>
<stop offset="0.63" stop-color="#FF980E"/>
</radialGradient>
<linearGradient id="paint21_linear_1_998" x1="510.723" y1="30.5058" x2="494.811" y2="46.4184" gradientUnits="userSpaceOnUse">
<stop offset="0.17" stop-color="#FFF44F" stop-opacity="0.8"/>
<stop offset="0.27" stop-color="#FFF44F" stop-opacity="0.63"/>
<stop offset="0.49" stop-color="#FFF44F" stop-opacity="0.22"/>
<stop offset="0.6" stop-color="#FFF44F" stop-opacity="0"/>
</linearGradient>
<clipPath id="clip0_1_998">
<rect width="24" height="24" fill="white" transform="translate(267 27)"/>
</clipPath>
<clipPath id="clip1_1_998">
<rect width="24" height="24" fill="white" transform="translate(490 27)"/>
</clipPath>
</defs>
</svg>
